<?xml version="1.0" encoding="iso-8859-1"?>
<!-- Generator: Adobe Illustrator 19.0.0, SVG Export Plug-In . SVG Version: 6.00 Build 0)  -->
<svg version="1.1" id="Capa_1" xmlns="http://www.w3.org/2000/svg" xmlns:xlink="http://www.w3.org/1999/xlink" x="0px" y="0px"
	 viewBox="0 0 197.973 197.973" style="enable-background:new 0 0 197.973 197.973;" xml:space="preserve">
<g>
	<g>
		<path d="M187.733,30.72H10.24C4.593,30.72,0,35.313,0,40.96C0,46.607,4.593,51.2,10.24,51.2h177.493
			c5.647,0,10.24-4.593,10.24-10.24C197.973,35.313,193.381,30.72,187.733,30.72z M187.733,44.373H10.24
			c-1.882,0-3.413-1.531-3.413-3.413c0-1.882,1.531-3.413,3.413-3.413h177.493c1.882,0,3.413,1.531,3.413,3.413
			C191.146,42.842,189.616,44.373,187.733,44.373z"/>
	</g>
</g>
<g>
	<g>
		<path d="M187.733,88.747H10.24C4.593,88.747,0,93.339,0,98.987c0,5.647,4.593,10.24,10.24,10.24h177.493
			c5.647,0,10.24-4.593,10.24-10.24C197.973,93.339,193.381,88.747,187.733,88.747z M187.733,102.4H10.24
			c-1.882,0-3.413-1.531-3.413-3.413s1.531-3.413,3.413-3.413h177.493c1.882,0,3.413,1.531,3.413,3.413S189.616,102.4,187.733,102.4
			z"/>
	</g>
</g>
<g>
	<g>
		<path d="M187.733,146.773H10.24c-5.647,0-10.24,4.593-10.24,10.24c0,5.647,4.593,10.24,10.24,10.24h177.493
			c5.647,0,10.24-4.593,10.24-10.24C197.973,151.366,193.381,146.773,187.733,146.773z M187.733,160.427H10.24
			c-1.882,0-3.413-1.531-3.413-3.413c0-1.882,1.531-3.413,3.413-3.413h177.493c1.882,0,3.413,1.531,3.413,3.413
			C191.146,158.896,189.616,160.427,187.733,160.427z"/>
	</g>
</g>
<g>
</g>
<g>
</g>
<g>
</g>
<g>
</g>
<g>
</g>
<g>
</g>
<g>
</g>
<g>
</g>
<g>
</g>
<g>
</g>
<g>
</g>
<g>
</g>
<g>
</g>
<g>
</g>
<g>
</g>
</svg>
