<?xml version="1.0" encoding="utf-8"?>
<svg xmlns="http://www.w3.org/2000/svg" viewBox="0 0 50 50" fill="#000000"><path d="M 12 0 C 10.90625 0 10 0.90625 10 2 L 10 4 L 4 4 C 2.839844 4 2 4.839844 2 6 L 2 13 L 48 13 L 48 6 C 48 4.839844 47.160156 4 46 4 L 40 4 L 40 2 C 40 0.90625 39.09375 0 38 0 L 36 0 C 34.90625 0 34 0.90625 34 2 L 34 4 L 16 4 L 16 2 C 16 0.90625 15.09375 0 14 0 Z M 12 2 L 14 2 L 14 8 L 12 8 Z M 36 2 L 38 2 L 38 8 L 36 8 Z M 2 15 L 2 46 C 2 47.105469 2.894531 48 4 48 L 46 48 C 47.105469 48 48 47.105469 48 46 L 48 15 Z M 24.980469 22.925781 L 26.65625 22.925781 L 26.65625 35.527344 L 24.40625 35.527344 L 24.40625 26.636719 L 21.308594 26.636719 L 21.308594 25.015625 C 21.742188 25.015625 22.160156 24.976563 22.566406 24.90625 C 22.976563 24.835938 23.347656 24.714844 23.675781 24.546875 C 24.003906 24.378906 24.289063 24.164063 24.519531 23.898438 C 24.753906 23.632813 24.910156 23.308594 24.980469 22.925781 Z" fill="#000000"/></svg>
