<?xml version="1.0" encoding="utf-8"?>
<svg xmlns="http://www.w3.org/2000/svg" viewBox="0 0 30 30" fill="#000000"><path d="M 15 3.0019531 C 10.758 3.0019531 9 5.7229531 9 9.0019531 C 9 10.105953 9.5273437 11.214844 9.5273438 11.214844 C 9.3153438 11.336844 8.9666875 11.724109 9.0546875 12.412109 C 9.2186875 13.695109 9.7749062 14.021828 10.128906 14.048828 C 10.263906 15.245828 11.55 16.777 12 17 L 12 19 C 11.997808 19.006577 11.992494 19.011049 11.990234 19.017578 C 11.659537 19.05863 11.364495 19.253775 11.214844 19.556641 L 10.902344 20.185547 C 8.4342918 21.569421 3 21.226303 3 27 L 13.304688 27 L 14.5 23.083984 L 13.361328 21 L 14.972656 21 L 16.587891 21 C 16.928891 20.158 17.409 19.390703 18 18.720703 L 18 17 C 18.45 16.777 19.736094 15.245828 19.871094 14.048828 C 20.225094 14.021828 20.781312 13.695109 20.945312 12.412109 C 21.033313 11.723109 20.684656 11.336844 20.472656 11.214844 C 20.472656 11.214844 21 10.212953 21 9.0019531 C 21 6.5739531 20.047 4.5019531 18 4.5019531 C 18 4.5019531 17.289 3.0019531 15 3.0019531 z M 23.689453 18 C 23.580453 18 23.488563 18.082406 23.476562 18.191406 L 23.453125 18.410156 C 23.422125 18.691156 23.209594 18.912703 22.933594 18.970703 C 22.753594 19.008703 22.57825 19.055328 22.40625 19.111328 C 22.13825 19.198328 21.844734 19.111766 21.677734 18.884766 L 21.546875 18.707031 C 21.481875 18.619031 21.362578 18.594437 21.267578 18.648438 L 20.730469 18.958984 C 20.635469 19.013984 20.598578 19.130469 20.642578 19.230469 L 20.732422 19.4375 C 20.845422 19.6955 20.773453 19.992641 20.564453 20.181641 C 20.429453 20.302641 20.301687 20.431406 20.179688 20.566406 C 19.990687 20.776406 19.693547 20.848375 19.435547 20.734375 L 19.228516 20.644531 C 19.128516 20.600531 19.012031 20.637422 18.957031 20.732422 L 18.646484 21.269531 C 18.591484 21.364531 18.617078 21.483828 18.705078 21.548828 L 18.882812 21.679688 C 19.109813 21.846688 19.196375 22.139203 19.109375 22.408203 C 19.053375 22.580203 19.00575 22.755547 18.96875 22.935547 C 18.91075 23.211547 18.689203 23.424078 18.408203 23.455078 L 18.224609 23.474609 C 18.082609 23.488609 18 23.580453 18 23.689453 L 18 24.308594 C 18 24.417594 18.082406 24.509484 18.191406 24.521484 L 18.410156 24.546875 C 18.691156 24.577875 18.912703 24.788453 18.970703 25.064453 C 19.008703 25.244453 19.055328 25.42175 19.111328 25.59375 C 19.198328 25.86175 19.111766 26.155266 18.884766 26.322266 L 18.707031 26.451172 C 18.619031 26.516172 18.594437 26.637422 18.648438 26.732422 L 18.958984 27.267578 C 19.013984 27.362578 19.130469 27.401422 19.230469 27.357422 L 19.4375 27.267578 C 19.6955 27.154578 19.992641 27.226547 20.181641 27.435547 C 20.302641 27.570547 20.431406 27.698312 20.566406 27.820312 C 20.776406 28.009313 20.848375 28.306453 20.734375 28.564453 L 20.644531 28.769531 C 20.600531 28.869531 20.637422 28.987969 20.732422 29.042969 L 21.269531 29.351562 C 21.364531 29.406562 21.483828 29.380969 21.548828 29.292969 L 21.679688 29.115234 C 21.846688 28.888234 22.139203 28.803625 22.408203 28.890625 C 22.580203 28.946625 22.755547 28.992297 22.935547 29.029297 C 23.211547 29.087297 23.424078 29.309844 23.455078 29.589844 L 23.478516 29.810547 C 23.488516 29.918547 23.580453 30 23.689453 30 L 24.308594 30 C 24.417594 30 24.509484 29.917594 24.521484 29.808594 L 24.546875 29.589844 C 24.577875 29.308844 24.788453 29.087297 25.064453 29.029297 C 25.244453 28.991297 25.42175 28.944672 25.59375 28.888672 C 25.86175 28.801672 26.155266 28.888234 26.322266 29.115234 L 26.451172 29.292969 C 26.516172 29.380969 26.637422 29.405563 26.732422 29.351562 L 27.267578 29.041016 C 27.362578 28.986016 27.401422 28.869531 27.357422 28.769531 L 27.267578 28.5625 C 27.154578 28.3045 27.226547 28.007359 27.435547 27.818359 C 27.570547 27.697359 27.698312 27.568594 27.820312 27.433594 C 28.009313 27.223594 28.306453 27.151625 28.564453 27.265625 L 28.769531 27.355469 C 28.869531 27.399469 28.987969 27.362578 29.042969 27.267578 L 29.351562 26.730469 C 29.406562 26.635469 29.380969 26.516172 29.292969 26.451172 L 29.115234 26.320312 C 28.888234 26.153312 28.803625 25.860797 28.890625 25.591797 C 28.946625 25.419797 28.992297 25.244453 29.029297 25.064453 C 29.087297 24.788453 29.310797 24.575922 29.591797 24.544922 C 29.671797 24.535922 29.746547 24.528484 29.810547 24.521484 C 29.918547 24.511484 30 24.419547 30 24.310547 L 30 23.689453 C 30 23.580453 29.917594 23.488563 29.808594 23.476562 L 29.589844 23.453125 C 29.308844 23.422125 29.087297 23.209594 29.029297 22.933594 C 28.991297 22.753594 28.944672 22.57825 28.888672 22.40625 C 28.801672 22.13825 28.888234 21.844734 29.115234 21.677734 L 29.292969 21.546875 C 29.380969 21.481875 29.405563 21.362578 29.351562 21.267578 L 29.041016 20.730469 C 28.986016 20.635469 28.869531 20.598578 28.769531 20.642578 L 28.5625 20.732422 C 28.3045 20.845422 28.007359 20.773453 27.818359 20.564453 C 27.697359 20.429453 27.568594 20.301687 27.433594 20.179688 C 27.223594 19.990687 27.151625 19.693547 27.265625 19.435547 L 27.355469 19.228516 C 27.399469 19.128516 27.362578 19.012031 27.267578 18.957031 L 26.730469 18.646484 C 26.635469 18.591484 26.516172 18.617078 26.451172 18.705078 L 26.320312 18.882812 C 26.153312 19.109813 25.860797 19.196375 25.591797 19.109375 C 25.419797 19.053375 25.244453 19.00575 25.064453 18.96875 C 24.788453 18.91075 24.575922 18.688203 24.544922 18.408203 L 24.521484 18.189453 C 24.511484 18.082453 24.419547 18 24.310547 18 L 23.689453 18 z M 24 21 C 25.657 21 27 22.343 27 24 C 27 25.657 25.657 27 24 27 C 22.343 27 21 25.657 21 24 C 21 22.343 22.343 21 24 21 z M 24 23 C 23.448 23 23 23.448 23 24 C 23 24.552 23.448 25 24 25 C 24.552 25 25 24.552 25 24 C 25 23.448 24.552 23 24 23 z" fill="#000000"/></svg>
