<?xml version="1.0" encoding="utf-8"?>
<svg xmlns="http://www.w3.org/2000/svg" viewBox="0 0 128 128" fill="#000000"><path d="M86,6L32,6c-7.2,0-13,5.8-13,13v90c0,7.2,5.8,13,13,13h64c7.2,0,13-5.8,13-13V29c0-6.1-2.4-11.9-6.7-16.3S92.1,6,86,6z M42,46h42c1.7,0,3,1.3,3,3s-1.3,3-3,3H42c-1.7,0-3-1.3-3-3S40.3,46,42,46z M42,61h25c1.7,0,3,1.3,3,3s-1.3,3-3,3H42 c-1.7,0-3-1.3-3-3S40.3,61,42,61z M51.2,82h-9c-1.7,0-3-1.3-3-3s1.3-3,3-3h9c1.7,0,3,1.3,3,3S52.9,82,51.2,82z M97,64.9L68.5,93.4 c-3,3-6.9,4.6-11.1,4.6h-2l0-2c0-4.2,1.6-8.1,4.6-11.1l28.5-28.5c1.1-1.1,2.6-1.8,4.2-1.8s3.1,0.6,4.2,1.8c1.1,1.1,1.8,2.6,1.8,4.2 S98.2,63.8,97,64.9z M96,26c-3.9,0-7-3.1-7-7l0-6.7c3.4,0.6,6.5,2.2,9,4.7c2.5,2.5,4.1,5.6,4.7,9H96z" fill="#000000"/></svg>
