<?xml version="1.0" encoding="utf-8"?>
<svg xmlns="http://www.w3.org/2000/svg" viewBox="0 0 26 26" fill="#000000"><path d="M 11 0.15625 C 7.824219 0.15625 5.09375 2.296875 5.09375 6.40625 C 5.09375 9.089844 6.351563 11.816406 8 13.5 C 8.640625 15.183594 7.488281 15.820313 7.25 15.90625 C 3.925781 17.109375 0.03125 19.304688 0.03125 21.46875 L 0.03125 22.28125 C 0.03125 25.058594 5.113281 25.796875 10.125 25.875 C 10.054688 25.488281 10.042969 25.078125 10.15625 24.6875 L 11.40625 20.46875 C 11.535156 20.023438 11.800781 19.632813 12.15625 19.3125 L 15.3125 16.15625 C 15.058594 16.0625 14.8125 15.988281 14.5625 15.90625 C 14.402344 15.855469 13.402344 15.410156 14.03125 13.5 C 15.667969 11.8125 16.90625 9.078125 16.90625 6.40625 C 16.90625 2.300781 14.175781 0.15625 11 0.15625 Z M 22.8125 12.125 C 22.492188 12.125 22.179688 12.257813 21.9375 12.5 L 21.40625 13.03125 L 24.96875 16.59375 L 25.5 16.0625 C 25.984375 15.578125 25.992188 14.773438 25.5 14.28125 L 23.71875 12.5 C 23.472656 12.253906 23.132813 12.125 22.8125 12.125 Z M 20.8125 13.53125 L 19.96875 14.34375 L 23.65625 18.03125 L 24.53125 17.25 Z M 19.40625 14.9375 L 13.5 20.78125 C 13.417969 20.847656 13.34375 20.921875 13.3125 21.03125 L 12.09375 25.25 C 12.039063 25.4375 12.082031 25.644531 12.21875 25.78125 C 12.320313 25.882813 12.457031 25.9375 12.59375 25.9375 C 12.644531 25.9375 12.671875 25.921875 12.71875 25.90625 L 16.96875 24.6875 C 17.070313 24.660156 17.125 24.574219 17.1875 24.5 L 23.125 18.625 L 20.71875 16.21875 Z M 14.21875 21.65625 L 14.53125 21.9375 L 15.90625 22.0625 L 16 23.4375 L 16.34375 23.78125 L 14.0625 24.4375 L 13.5625 23.9375 Z" fill="#000000"/></svg>
