<?xml version="1.0" encoding="utf-8"?>
<svg xmlns="http://www.w3.org/2000/svg" viewBox="0 0 50 50" fill="#000000"><path d="M 25 2 C 12.309534 2 2 12.309534 2 25 A 1.0001 1.0001 0 1 0 4 25 C 4 13.390466 13.390466 4 25 4 C 32.140358 4 38.427924 7.5627554 42.222656 13 L 38 13 A 1.0001 1.0001 0 1 0 38 15 L 46 15 L 46 7 A 1.0001 1.0001 0 0 0 44.984375 5.9863281 A 1.0001 1.0001 0 0 0 44 7 L 44 12.052734 C 39.859137 5.9863595 32.891564 2 25 2 z M 25 6 C 14.507 6 6 14.507 6 25 C 6 27.862 6.6502031 30.566 7.7832031 33 L 12 33 C 13.657 33 15 34.343 15 36 C 15 37.657 13.657 39 12 39 L 12.1875 39 C 15.5675 42.095 20.056 44 25 44 C 35.493 44 44 35.493 44 25 C 44 22.138 43.349797 19.434 42.216797 17 L 38 17 C 36.343 17 35 15.657 35 14 C 35 12.401 36.255031 11.106578 37.832031 11.017578 C 34.450031 7.9115781 29.954 6 25 6 z M 25 10 C 25.553 10 26 10.447 26 11 L 26 13.046875 C 30.716 13.489875 32 17.056 32 19 C 32 19.553 31.553 20 31 20 C 30.449 20 30.003 19.555859 30 19.005859 C 29.994 18.589859 29.804 15 25 15 C 20.191 15 20.005 18.597813 20 19.007812 C 20 19.862813 20.000062 22.152672 25.164062 23.013672 C 33.133063 24.341672 33.035906 28.480797 33.003906 29.841797 L 33 30 C 33 30.067 32.898 36.376359 26 36.943359 L 26 39 C 26 39.553 25.553 40 25 40 C 24.447 40 24 39.553 24 39 L 24 36.947266 C 18.498 36.424266 17 31.614 17 29 C 17 28.447 17.447 28 18 28 C 18.553 28 19 28.447 19 29 C 19.004 29.611 19.205 35 25 35 C 30.932 35 31 30.204 31 30 L 31.003906 29.794922 C 31.027906 28.764922 31.092938 26.029328 24.835938 24.986328 C 20.299938 24.230328 18 22.217 18 19 C 18 17.056 19.284 13.488875 24 13.046875 L 24 11 C 24 10.447 24.447 10 25 10 z M 46.984375 23.986328 A 1.0001 1.0001 0 0 0 46 25 C 46 36.609534 36.609534 46 25 46 C 17.859642 46 11.572076 42.437245 7.7773438 37 L 12 37 A 1.0001 1.0001 0 1 0 12 35 L 4 35 L 4 43 A 1.0001 1.0001 0 1 0 6 43 L 6 37.947266 C 10.140863 44.01364 17.108436 48 25 48 C 37.690466 48 48 37.690466 48 25 A 1.0001 1.0001 0 0 0 46.984375 23.986328 z" fill="#000000"/></svg>
