<?xml version="1.0" encoding="utf-8"?>
<svg xmlns="http://www.w3.org/2000/svg" viewBox="0 0 50 50" fill="#000000"><path d="M25,2c-5.265,0-10.119,1.782-14,4.77V6c0-1.657-1.343-3-3-3S5,4.343,5,6v7.664C3.095,17.012,2,20.88,2,25 c0,12.682,10.317,23,23,23s23-10.318,23-23S37.683,2,25,2z M4.21,27.99L4.07,27l1.98-0.28l0.28,1.97l-1.98,0.29 C4.21,27.99,4.35,28.979,4.21,27.99z M5.22,32.06L4.88,31.12l1.88-0.681l0.67,1.891L5.55,33C5.22,32.06,5.55,33,5.22,32.06z M7.53,36.7c-0.52-0.851,0,0-0.52-0.851L6.5,34.99l1.71-1.04l1.03,1.72L7.53,36.7z M10.2,39.939c-0.67-0.739,0,0-0.67-0.739 l-0.68-0.74l1.47-1.351l1.36,1.471L10.2,39.939z M13.46,42.58c-0.81-0.59,0,0-0.81-0.59l-0.8-0.591l1.17-1.619l1.62,1.18 L13.46,42.58z M17.19,44.52c-0.92-0.41,0,0-0.92-0.41c0,0,0,0,0-0.01l-0.91-0.41l0.84-1.819l0.91,0.42H17.1l0.92,0.41L17.19,44.52z M24.783,26.144C21.761,25.472,18,24.636,18,20.334c-0.001-0.094-0.009-2.596,1.817-4.443c1.045-1.057,2.451-1.67,4.183-1.838V11h2 v3.071c3.868,0.517,4.976,4.002,5,5.916l-2,0.025C28.991,19.605,28.805,16,25,16c-2.093,0-3.562,0.704-4.365,2.093 C20.006,19.18,20,20.316,20,20.327c0,2.574,1.982,3.146,5.217,3.863C28.239,24.862,32,25.698,32,30c0,4.151-3.502,5.63-6,5.936V39 h-2v-3.046c-4.716-0.443-6-4.01-6-5.954h1l1-0.007C20.005,30.403,20.191,34,25,34c0.202-0.001,5-0.07,5-4 C30,27.433,28.018,26.861,24.783,26.144z M21.22,45.68c-0.98-0.22,0,0-0.98-0.22l-0.97-0.23l0.45-1.949l1.95,0.46L21.22,45.68z M25.401,45.98L25.4,46c-1-0.029,0,0.02-1-0.01l-1-0.03l0.06-2L25,44.006V44c10.477,0,19-8.523,19-19S35.477,6,25,6 c-5.758,0-11.128,2.589-14.722,7H16c0.553,0,1,0.448,1,1s-0.447,1-1,1H7V6c0-0.552,0.447-1,1-1s1,0.448,1,1v5.398 C12.968,6.726,18.782,4,25,4c11.579,0,21,9.42,21,21C46,36.444,36.794,45.763,25.401,45.98z" fill="#000000"/></svg>
