<?xml version="1.0" encoding="utf-8"?>
<svg xmlns="http://www.w3.org/2000/svg" viewBox="0 0 50 50" fill="#000000"><path d="M 31 1 C 30.398438 1 30 1.398438 30 2 L 30 15 L 32 15 L 32 2 C 32 1.398438 31.601563 1 31 1 Z M 32 15 L 32 23.59375 L 35.3125 20.3125 C 35.710938 19.914063 36.289063 19.914063 36.6875 20.3125 C 37.085938 20.710938 37.085938 21.289063 36.6875 21.6875 L 31 27.40625 L 25.3125 21.6875 C 24.914063 21.289063 24.914063 20.710938 25.3125 20.3125 C 25.710938 19.914063 26.289063 19.914063 26.6875 20.3125 L 30 23.59375 L 30 15 L 16.3125 15 L 14.1875 6.40625 C 13.488281 4.105469 12.289063 2 8.6875 2 L 2 2 C 0.894531 2 0 2.894531 0 4 C 0 5.105469 0.894531 6 2 6 C 3.105469 6 4 5.105469 4 4 L 8.6875 4 C 10.789063 4 11.613281 4.707031 12.3125 6.90625 L 20.3125 39.1875 C 20.738281 40.753906 21.207031 42.550781 22.96875 43.4375 C 22.375 44.136719 22 45.019531 22 46 C 22 48.199219 23.800781 50 26 50 C 28.199219 50 30 48.199219 30 46 C 30 45.265625 29.785156 44.59375 29.4375 44 L 35.5625 44 C 35.214844 44.59375 35 45.265625 35 46 C 35 48.199219 36.800781 50 39 50 C 41.199219 50 43 48.199219 43 46 C 43 44.960938 42.589844 44.023438 41.9375 43.3125 C 41.96875 43.214844 42 43.113281 42 43 C 42 42.398438 41.601563 42 41 42 L 25.6875 42 C 22.988281 42 22.695313 40.886719 22.09375 38.6875 L 21.5 36 L 39.8125 36 C 40.210938 36 40.585938 35.707031 40.6875 35.40625 L 47.90625 16.40625 C 48.007813 16.105469 48.011719 15.699219 47.8125 15.5 C 47.613281 15.199219 47.300781 15 47 15 Z M 25.8125 44 L 26 44 C 27.101563 44 28 44.898438 28 46 C 28 47.101563 27.101563 48 26 48 C 24.898438 48 24 47.101563 24 46 C 24 44.964844 24.800781 44.09375 25.8125 44 Z M 39 44 C 40.101563 44 41 44.898438 41 46 C 41 47.101563 40.101563 48 39 48 C 37.898438 48 37 47.101563 37 46 C 37 44.898438 37.898438 44 39 44 Z" fill="#000000"/></svg>
