<?xml version="1.0" encoding="utf-8"?>
<svg xmlns="http://www.w3.org/2000/svg" viewBox="0 0 26 26" fill="#000000"><path d="M 10.5 0.15625 C 7.484375 0.15625 5.0625 2.226563 5.0625 6.1875 C 5.0625 8.773438 6.09375 11.410156 7.65625 13.03125 C 8.265625 14.652344 7.167969 15.257813 6.9375 15.34375 C 3.78125 16.5 0.09375 18.601563 0.09375 20.6875 L 0.09375 21.46875 C 0.09375 24.3125 5.507813 24.96875 10.53125 24.96875 C 11.382813 24.96875 12.253906 24.949219 13.09375 24.90625 C 12.65625 24.539063 12.070313 24.140625 11.28125 23.78125 C 10.203125 23.292969 9.753906 22.535156 9.5625 21.96875 C 9.167969 20.789063 9.628906 19.753906 9.78125 19.46875 C 9.8125 19.40625 9.867188 19.371094 9.90625 19.3125 L 10.65625 18.1875 C 11.082031 17.542969 11.96875 16.875 13.25 16.875 C 13.765625 16.875 14.300781 17 14.84375 17.21875 C 15.484375 17.476563 16.082031 17.878906 16.59375 18.3125 C 16.890625 17.90625 17.253906 17.449219 17.65625 17 C 16.496094 16.335938 15.148438 15.773438 13.875 15.34375 C 13.722656 15.292969 12.78125 14.839844 13.375 13 C 14.929688 11.375 15.9375 8.761719 15.9375 6.1875 C 15.9375 2.226563 13.515625 0.15625 10.5 0.15625 Z M 25.90625 13.8125 C 19.046875 16.300781 16.90625 21.65625 16.90625 21.65625 C 16.90625 21.65625 15.597656 19.667969 14.09375 19.0625 C 12.785156 18.535156 12.3125 19.3125 12.3125 19.3125 L 11.5625 20.4375 C 11.5625 20.4375 11.007813 21.460938 12.125 21.96875 C 15.007813 23.28125 15.761719 24.96875 16.1875 25.5 C 16.625 26.046875 17.359375 26.027344 17.6875 25.375 C 18.847656 23.082031 20.136719 18.117188 25.90625 13.8125 Z" fill="#000000"/></svg>
