<svg id="Icons" height="512" viewBox="0 0 74 74" width="512" xmlns="http://www.w3.org/2000/svg"><path d="m37 53.694a17.694 17.694 0 1 1 17.7-17.694 17.714 17.714 0 0 1 -17.7 17.694zm0-33.387a15.694 15.694 0 1 0 15.7 15.693 15.711 15.711 0 0 0 -15.7-15.693z"/><path d="m50.318 45.615a17.562 17.562 0 0 0 -26.636 0l-1.518-1.3a19.564 19.564 0 0 1 29.672 0z"/><path d="m37 39.5a6.339 6.339 0 1 1 6.338-6.338 6.345 6.345 0 0 1 -6.338 6.338zm0-10.677a4.339 4.339 0 1 0 4.338 4.339 4.344 4.344 0 0 0 -4.338-4.338z"/><path d="m37.085 67.5a30.531 30.531 0 0 1 -28.705-40.925 1 1 0 0 1 1.879.685 28.485 28.485 0 0 0 47.958 28.775 1 1 0 1 1 1.483 1.337 30.359 30.359 0 0 1 -22.615 10.128z"/><path d="m53.869 13.81a.994.994 0 0 1 -.574-.182 25.048 25.048 0 0 0 -2.434-1.52 1 1 0 0 1 .957-1.756 26.742 26.742 0 0 1 2.627 1.64 1 1 0 0 1 -.576 1.818z"/><path d="m18.021 15.46a1 1 0 0 1 -.645-1.765 30.354 30.354 0 0 1 16.491-7.009 1 1 0 1 1 .206 1.989 28.378 28.378 0 0 0 -15.409 6.55.994.994 0 0 1 -.643.235z"/><path d="m44.811 9.57a.986.986 0 0 1 -.267-.036 27.145 27.145 0 0 0 -2.854-.627 1 1 0 1 1 .32-1.974 28.955 28.955 0 0 1 3.066.673 1 1 0 0 1 -.265 1.964z"/><path d="m64.72 48.09a.976.976 0 0 1 -.342-.061 1 1 0 0 1 -.6-1.281 28.514 28.514 0 0 0 -5.314-28.5 1 1 0 1 1 1.507-1.314 30.51 30.51 0 0 1 5.686 30.5 1 1 0 0 1 -.937.656z"/><path d="m64.721 48.088a1 1 0 0 1 -.907-.577l-2.931-6.287a1 1 0 1 1 1.812-.845l2.509 5.38 5.381-2.508a1 1 0 1 1 .845 1.812l-6.287 2.937a.994.994 0 0 1 -.422.088z"/><path d="m12.226 34.216a1 1 0 0 1 -.907-.577l-2.508-5.381-5.381 2.508a1 1 0 1 1 -.845-1.812l6.287-2.931a1 1 0 0 1 1.329.484l2.931 6.287a1 1 0 0 1 -.906 1.422z"/></svg>